<svg height="512" viewBox="0 0 64 64" width="512" xmlns="http://www.w3.org/2000/svg"><g id="Typewriter-3" data-name="Typewriter"><path d="m20.9 34.553 1.718 3.447h18.764l1.723-3.447a1 1 0 0 1 .895-.553h6v-30h-36v30h6a1 1 0 0 1 .9.553zm17.1-2.553h-10v-2h10zm-12-4v-2h14v2zm20 4h-6v-2h6zm0-4h-4v-2h4zm0-8h-4v-2h4zm0-4h-12v-2h12zm-4-6h4v2h-4zm-16 0h14v2h-14zm6 4v2h-10v-2zm-14-4h6v2h-6zm0 4h2v2h-2zm0 4h22v2h-22zm0 4h28v2h-28zm0 4h6v2h-6zm0 4h8v2h-8z"/><path d="m57 34h2v6h-2z"/><path d="m9 38h4a1 1 0 0 1 1 1v3h36v-3a1 1 0 0 1 1-1h4v-2h-10.382l-1 2h2.382v2h-28v-2h2.382l-1-2h-10.382z"/><path d="m5 34h2v6h-2z"/><path d="m4 56h56v4h-56z"/><path d="m59.382 54-5-10h-44.764l-5 10zm-5.382-2h-2v-2h2zm-3-6h2v2h-2zm-1 6h-2v-2h2zm-3-6h2v2h-2zm-4 0h2v2h-2zm-4 0h2v2h-2zm-4 0h2v2h-2zm-4 0h2v2h-2zm-4 0h2v2h-2zm-4 0h2v2h-2zm-4 0h2v2h-2zm-1 4h28v2h-28zm-3-4h2v2h-2zm-1 4h2v2h-2zm-3-4h2v2h-2zm-1 4h2v2h-2z"/></g></svg>